<svg xmlns="http://www.w3.org/2000/svg" width="66" height="75" viewBox="0 0 66 75" fill="none"><path d="M16.6486 43.5021V37.6652C16.6486 37.1014 17.1058 36.6477 17.6695 36.6477H27.6722V27.415C27.6722 26.8547 28.1294 26.3975 28.6932 26.3975H39.7166H39.7132C40.2769 26.3975 40.7341 26.8547 40.7341 27.415V32.3031H49.7197V20.8455C49.7197 20.2818 50.1734 19.828 50.7372 19.828H61.7606C62.3244 19.828 62.7781 20.2818 62.7781 20.8455V64.66C63.1528 64.88 63.4931 65.1447 63.7991 65.4506C65.2497 66.9012 65.6829 69.0875 64.8922 70.9815C64.105 72.8756 62.2522 74.1096 60.1966 74.1027H28.7542C24.1032 74.1027 22.687 72.4321 21.838 71.4352C21.7589 71.3424 21.6902 71.2599 21.6283 71.1912L12.1411 60.9715H10.089V64.0996C10.089 64.6599 9.63179 65.1171 9.07148 65.1171H1.02095C0.457196 65.1171 0 64.6599 0 64.0996V40.3843C0 39.8205 0.457189 39.3668 1.02095 39.3668H9.07148C9.63523 39.3668 10.089 39.8205 10.089 40.3843V43.5055H16.6478L16.6486 43.5021ZM19.9692 19.8484C19.9692 20.4122 19.5154 20.8693 18.9517 20.8693C18.3879 20.8693 17.9308 20.4122 17.9308 19.8484V19.46V19.4634C16.2911 19.0062 15.1567 17.5109 15.1533 15.8093C15.1533 15.2456 15.6104 14.7884 16.1708 14.7884C16.7345 14.7884 17.1917 15.2456 17.1917 15.8093C17.1951 16.7787 17.9823 17.5625 18.9517 17.5625C19.4158 17.5659 19.8626 17.3803 20.1892 17.0468C20.5192 16.7203 20.7048 16.2734 20.7048 15.8093C20.7048 15.3418 20.5192 14.8949 20.1892 14.5649C19.8626 14.2349 19.4158 14.0527 18.9517 14.0527C17.0645 14.0356 15.4798 12.6399 15.222 10.7699C14.9677 8.90335 16.1192 7.12957 17.9308 6.60707V6.21863C17.9308 5.65832 18.388 5.20113 18.9518 5.20113C19.5155 5.20113 19.9693 5.65832 19.9693 6.21863V6.60707C21.6055 7.07113 22.7364 8.55957 22.7399 10.2611C22.7399 10.8249 22.2861 11.2786 21.7224 11.2786C21.1586 11.2786 20.7049 10.8249 20.7049 10.2611C20.7049 9.54956 20.2752 8.90673 19.6152 8.63517C18.9587 8.36017 18.199 8.51486 17.6971 9.01674C17.1952 9.52205 17.044 10.2817 17.319 10.9383C17.594 11.5948 18.2368 12.0211 18.9484 12.0211C20.8424 12.0246 22.4443 13.4202 22.7022 15.2971C22.9566 17.174 21.7912 18.9511 19.9693 19.4633L19.9692 19.8484ZM18.9517 0C23.0045 0.0034375 26.8233 1.88716 29.2917 5.10121C31.7564 8.31527 32.5883 12.4954 31.5364 16.4107C30.4879 20.3226 27.6795 23.5263 23.9361 25.0765C20.1927 26.6267 15.9406 26.3484 12.4308 24.3203C8.92461 22.2956 6.55617 18.7515 6.02677 14.7363C5.4974 10.7179 6.86893 6.68213 9.73238 3.8192C12.1764 1.3717 15.4936 -0.00329952 18.9518 0.000147146L18.9517 0ZM26.7272 5.25595C23.0182 1.55034 17.2056 0.983107 12.8467 3.89811C8.48791 6.80966 6.7967 12.3989 8.8042 17.2426C10.8117 22.0862 15.9611 24.8392 21.1037 23.8151C26.2462 22.7941 29.9484 18.2807 29.9521 13.0387C29.9555 10.1168 28.7936 7.31874 26.7277 5.25661L26.7272 5.25595ZM10.0901 45.5394V58.936H12.5823C12.8641 58.9394 13.1323 59.0563 13.3213 59.2625L23.1186 69.8049C23.2115 69.9046 23.294 70.0043 23.3902 70.1143C24.009 70.843 25.0402 72.0599 28.7562 72.0599H60.1986C61.8554 72.0324 63.1823 70.6849 63.1857 69.0314C63.1857 67.3746 61.8623 66.0236 60.2088 65.9927H37.1954C36.0954 65.9927 37.0957 65.9858 36.7313 65.9927C34.4385 65.9995 32.0528 66.0098 30.3272 64.3048L29.4816 63.466C29.3304 63.3457 29.1826 63.2185 29.0485 63.081L21.2664 55.2989V55.3023C21.0533 55.1167 20.9226 54.852 20.9123 54.5667C20.902 54.2849 21.012 54.0099 21.2114 53.8105C21.4108 53.6112 21.6858 53.5011 21.9676 53.5115C22.2529 53.5218 22.5176 53.649 22.7032 53.8621L29.482 60.6409L29.4992 60.6237L30.7848 61.899C31.7988 62.6278 33.1876 62.5178 34.0744 61.6446C35.0575 60.6477 35.0575 59.0459 34.0744 58.0525L23.92 47.9053C21.4896 45.4716 19.8225 45.4922 16.6806 45.5232C16.079 45.5301 15.4465 45.5404 15.309 45.5404L10.0901 45.5394ZM8.0551 63.0778V41.4041H2.0326V63.0778H8.0551ZM34.4008 63.8925V63.8959C35.1743 63.9612 35.9512 63.9853 36.7246 63.9681C37.3984 63.9647 36.4015 63.9647 37.1956 63.9647H38.6909V28.4347H29.7054V50.8057L35.5079 56.6151C37.2885 58.4026 37.2885 61.2936 35.5079 63.0811C35.1813 63.4076 34.8066 63.6792 34.3975 63.8923L34.4008 63.8925ZM27.6702 48.7704V38.6849H18.6847V43.5008C21.1872 43.5661 22.93 44.0371 25.3535 46.4639L27.6702 48.7704ZM40.7258 63.9607H49.7113L49.7079 34.3362H40.7223L40.7258 63.9607ZM51.7434 63.9607H60.7289L60.7255 21.8615H51.7399V63.9607H51.7434Z" fill="black"></path></svg>