<svg xmlns="http://www.w3.org/2000/svg" viewBox="0 0 83 62" width="100" height="75"><title>Vector-svg</title><style>		.s0 { fill: #000000 } 	</style><path id="Layer" fill-rule="evenodd" class="s0" d="m60.7 19.1q0 0 0 0zm0 0c3.4 0.6 6.1 3.6 6.1 7.2 0 3.6-2.7 6.6-6.1 7.1v13.3c0 2.8-2.3 5-5.1 5-2.8 0-5.1-2.2-5.1-5v-0.7c-6-4.1-15.1-6.5-23.8-7.7 0.5 2.3-0.9 4.7-3.2 5.3l-2.2 0.5 2.8 10.5c0.9 3.1-1 6.3-4.1 7.1q-0.7 0.2-1.4 0.2c-1.1 0-2-0.2-2.9-0.7-1.4-0.8-2.4-2.1-2.7-3.6l-5.4-20.1c-4.3-0.2-7.6-3.2-7.6-6.9v-8.7c0-3.8 3.6-6.9 8-6.9h8c11.1-0.2 25.8-2.6 34.5-8.5v-1.4c0-2.8 2.3-5.1 5.1-5.1 2.8 0 5.1 2.3 5.1 5.1zm-58.4 11.4c0 2.6 2.6 4.6 5.7 4.6h8 0.1c1.1 0 2.9 0.1 5.1 0.2v-18.2c-2.2 0.1-4 0.2-5.1 0.2h-8.1c-3.1 0-5.7 2.1-5.7 4.6v8.6zm17.1 28.9c1.9-0.5 3-2.4 2.5-4.2l-4.8-17.7q-0.5 0-1.1-0.1h-6l5.2 19.6c0.3 0.9 0.8 1.6 1.6 2.1 0.8 0.4 1.8 0.5 2.6 0.3zm4.9-21.4q-2.4-0.3-4.7-0.4l1.1 4.2 2.2-0.6c1.1-0.3 1.8-1.5 1.5-2.7zm26.3 5.2v-33.9c-8.2 4.9-19.3 6.9-27 7.6v18.7c7.7 0.7 18.8 2.7 27 7.6zm7.8-38.1c0-1.6-1.2-2.8-2.8-2.8-1.5 0-2.7 1.2-2.7 2.8v41.5c0 1.5 1.2 2.8 2.7 2.8 1.6 0 2.8-1.3 2.8-2.8zm6.1 21.2c0-2.3-1.6-4.2-3.8-4.7v9.5c2.2-0.5 3.8-2.5 3.8-4.8zm5.1-8.4c-0.4-0.5-0.4-1.2 0.1-1.6l5.5-5.2c0.5-0.5 1.2-0.5 1.7 0 0.4 0.5 0.4 1.2-0.1 1.7l-5.5 5.2c-0.2 0.2-0.5 0.3-0.8 0.3-0.3 0-0.6-0.1-0.9-0.4zm13.2 8.6c0 0.6-0.6 1.1-1.2 1.1l-7.6-0.2c-0.6 0-1.1-0.6-1.1-1.2 0-0.7 0.5-1.2 1.2-1.1l7.5 0.2c0.7 0 1.2 0.5 1.2 1.2zm-6.7 13.4c0.5 0.5 0.4 1.2 0 1.6-0.3 0.2-0.5 0.4-0.8 0.4-0.3 0-0.7-0.2-0.9-0.4l-5.2-5.5c-0.4-0.5-0.4-1.2 0.1-1.7 0.5-0.4 1.2-0.4 1.6 0.1z"></path></svg>