
<svg xmlns="http://www.w3.org/2000/svg" width="512" viewBox="0 0 60 60" height="512" id="Icons">
<path d="m58 42h-56v1a5.006 5.006 0 0 0 5 5h46a5.006 5.006 0 0 0 5-5zm-27 4h-2a1 1 0 0 1 0-2h2a1 1 0 0 1 0 2z"></path>
<path d="m23.887 30.444 2.037 3.056.147.015 2.06-2.06a12.839 12.839 0 0 1 -3.193-1.711z"></path>
<path d="m39 20a1 1 0 0 0 1-1v-3h-3v4z"></path>
<path d="m30 8a7.006 7.006 0 0 1 6.92 6h2.021a9 9 0 0 0 -17.882 0h2.021a7.006 7.006 0 0 1 6.92-6z"></path>
<path d="m28.291 25.724a1.274 1.274 0 0 0 .788.276h1.842a1.279 1.279 0 0 0 .789-.276l2.272-1.82a2.693 2.693 0 0 0 1.018-2.116v-6.788a5 5 0 0 0 -10 0v6.788a2.693 2.693 0 0 0 1.018 2.112z"></path>
<path d="m20 19a1 1 0 0 0 1 1h2v-4h-3z"></path>
<path d="m32.959 27.286a3.279 3.279 0 0 1 -2.038.714h-1.842a3.274 3.274 0 0 1 -2.037-.714l-.3-.243-.516 1.167a11.465 11.465 0 0 0 3.774 1.757 11.5 11.5 0 0 0 3.778-1.757l-.516-1.167z"></path>
<path d="m34.076 33.5 2.037-3.056-1.051-.7a12.839 12.839 0 0 1 -3.193 1.711l2.06 2.06z"></path>
<path d="m24 50h12v4h-12z"></path>
<path d="m17 58h26a1 1 0 0 0 0-2h-26a1 1 0 0 0 0 2z"></path>
<path d="m20.86 31.559a6.237 6.237 0 0 0 -4.86 6.057v2.384h28v-2.384a6.235 6.235 0 0 0 -4.856-6.056l-1.193-.267-2.211 3.316a2.094 2.094 0 0 1 -3.225.32l-2.515-2.515-2.515 2.515a2.1 2.1 0 0 1 -3.225-.32l-2.211-3.316z"></path>
<path d="m58 7a5.006 5.006 0 0 0 -5-5h-46a5.006 5.006 0 0 0 -5 5v33h12v-2.384a8.249 8.249 0 0 1 6.427-8.01l1.673-.374 2.1-1.4.919-2.078-.355-.284a4.682 4.682 0 0 1 -1.752-3.47h-2.012a3 3 0 0 1 -3-3v-3a1.992 1.992 0 0 1 1.038-1.742 10.986 10.986 0 0 1 21.924 0 1.992 1.992 0 0 1 1.038 1.742v3a2.985 2.985 0 0 1 -1 2.22v3.78a2 2 0 0 1 -2 2h-1a1 1 0 0 1 0-2h1v-3h-2.012a4.682 4.682 0 0 1 -1.756 3.467l-.355.284.919 2.078 2.1 1.4 1.677.375a8.248 8.248 0 0 1 6.427 8.012v2.384h12z"></path>
</svg>
