<svg xmlns="http://www.w3.org/2000/svg" viewBox="0 0 83 76" width="82" height="75"><title>us-based talent-svg</title><style>		.s0 { fill: #000000 } 	</style><path id="Layer" fill-rule="evenodd" class="s0" d="m58.1 28.1v20.4c0 1.1-0.9 2.1-2 2.1h-31c-1.2 0-2.1-1-2.1-2.1v-20.4c0-1.2 0.9-2.1 2.1-2.1h31c1.1 0 2 0.9 2 2.1zm-23.4 2.1c0 0.1 0 0.2 0.1 0.2l0.7 0.7-0.2 0.9q0 0.1 0.1 0.2c0.1 0 0.2 0 0.2 0l0.8-0.5 0.8 0.5q0.2 0 0.3 0 0.1-0.1 0-0.2l-0.2-1 0.8-0.6q0.1-0.1 0-0.2c0-0.1-0.1-0.2-0.2-0.2h-0.9l-0.4-0.9q0-0.1-0.2-0.1-0.1 0-0.2 0.1l-0.3 0.9h-1c-0.1 0-0.1 0.1-0.2 0.2zm0 4.2c0 0.1 0 0.2 0.1 0.2l0.7 0.7-0.2 0.9q0 0.1 0.1 0.2 0.1 0 0.1 0 0.1 0 0.1 0l0.8-0.5 0.8 0.5q0.2 0.1 0.3 0 0.1-0.1 0-0.2l-0.2-0.9 0.8-0.6q0.1-0.2 0-0.3c0 0-0.1-0.1-0.2-0.1l-0.9-0.1-0.4-0.9q0-0.1-0.2-0.1-0.1 0-0.2 0.1l-0.3 0.9-1 0.1q-0.1 0-0.2 0.1zm-4.4-4.2c0 0.1 0 0.2 0.1 0.2l0.7 0.7-0.2 0.9q-0.1 0.1 0.1 0.2c0 0 0.1 0 0.2 0l0.8-0.5 0.8 0.5q0.1 0 0.1 0 0.1 0 0.1 0 0.1-0.1 0.1-0.2l-0.2-1 0.7-0.6q0.1-0.1 0.1-0.2c0-0.1-0.1-0.2-0.2-0.2h-1l-0.3-0.9q-0.1-0.1-0.2-0.1-0.1 0-0.2 0.1l-0.4 0.9h-0.9c-0.1 0-0.2 0.1-0.2 0.2zm0 4.2c0 0.1 0 0.2 0.1 0.3l0.7 0.6-0.2 0.9q-0.1 0.2 0.1 0.2 0 0.1 0.1 0.1c0 0 0-0.1 0.1-0.1l0.8-0.5 0.8 0.5q0.1 0.1 0.2 0c0.1 0 0.1-0.1 0.1-0.2l-0.2-0.9 0.7-0.6q0.1-0.2 0.1-0.3c0 0-0.1-0.1-0.2-0.1l-1-0.1-0.3-0.9q-0.1-0.1-0.2-0.1-0.1 0-0.2 0.1l-0.4 0.9-0.9 0.1q-0.1 0-0.2 0.1zm-4.4-4.2c0 0.1 0 0.2 0.1 0.2l0.7 0.6-0.2 1c0 0 0 0.1 0.1 0.1q0 0.1 0.1 0.1c0 0 0-0.1 0.1-0.1l0.8-0.5 0.8 0.5q0.1 0.1 0.2 0c0.1 0 0.1-0.1 0.1-0.1l-0.2-1 0.7-0.6q0.1-0.1 0.1-0.2c0-0.1-0.1-0.2-0.2-0.2h-1l-0.3-0.9q-0.1-0.1-0.2-0.1-0.1 0-0.2 0.1l-0.4 0.9h-0.9c-0.1 0-0.2 0.1-0.2 0.2zm0 4.2c0 0.1 0 0.2 0.1 0.3l0.7 0.6-0.2 0.9q-0.1 0.2 0.1 0.2 0 0.1 0.1 0.1c0 0 0-0.1 0.1-0.1l0.8-0.5 0.8 0.5q0.1 0.1 0.2 0c0.1 0 0.1-0.1 0.1-0.2l-0.2-0.9 0.7-0.6q0.1-0.2 0.1-0.3c0 0-0.1-0.1-0.2-0.1l-1-0.1-0.3-0.9c-0.1-0.1-0.3-0.1-0.4 0l-0.4 0.9-0.9 0.1c-0.1 0-0.2 0-0.2 0.1zm29.6 13.5v-2.8h-29.8v2.8zm0-5.5v-2.8h-29.8v2.8zm0-8.2h-14.5v2.8h14.5zm0-5.5h-14.5v2.8h14.5zm16.2-1.3c6 0 10.8 4.8 10.8 10.7 0 6-4.8 10.8-10.8 10.8h-1.7v10.3c0 6.9-5.6 12.4-12.4 12.4h-10.8c-0.6 2.5-2.9 4.4-5.6 4.4-3.1 0-5.7-2.6-5.7-5.8 0-3.1 2.6-5.7 5.7-5.7 2.7 0 5 1.9 5.6 4.4h10.8c5.3 0 9.7-4.3 9.7-9.7v-30.4c0-14.4-11.7-26.1-26.1-26.1-14.3 0-26 11.7-26 26.1v18.7c0 0.8-0.6 1.4-1.3 1.4h-3.1c-6 0-10.8-4.8-10.8-10.8 0-5.9 4.8-10.7 10.8-10.7h1.8c0.7-15.2 13.3-27.4 28.6-27.4 15.4 0 28 12.2 28.7 27.4zm-59.2 2.7h-1.7c-4.5 0-8.1 3.6-8.1 8 0 4.5 3.6 8 8.1 8h1.7zm31.7 40.2c0-1.7-1.3-3-3-3-1.6 0-2.9 1.3-2.9 3 0 1.6 1.3 3 2.9 3 1.7 0 3-1.4 3-3zm27.5-24.1c4.5 0 8-3.6 8-8 0-4.5-3.6-8.1-8-8.1h-1.7v16.1z"></path></svg>