<svg xmlns="http://www.w3.org/2000/svg" width="74" height="75" viewBox="0 0 74 75" fill="none"><path d="M67.636 29.0244L63.196 28.3506L61.8634 25.125L64.5286 21.4512C66.0838 19.3506 65.8612 16.3506 64.0112 14.4756L59.6464 10.0518C57.7964 8.17676 54.8364 7.9512 52.7637 9.52735L49.1389 12.2285L45.9564 10.878L45.2915 6.37798C44.9215 3.75298 42.7015 1.80179 40.0364 1.80179H33.8216C31.2316 1.80179 28.9364 3.75298 28.5664 6.37798L27.9016 10.878L24.719 12.2285L21.0942 9.52735C19.0217 7.95116 16.0617 8.17679 14.2116 10.0518L9.84676 14.4756C7.99676 16.3506 7.77421 19.3506 9.32934 21.4512L11.9945 25.125L10.662 28.3506L6.22196 29.0244C3.63196 29.3994 1.70679 31.6494 1.70679 34.3506V40.6493C1.70679 43.2743 3.63196 45.6005 6.22196 45.9755L10.662 46.6493L11.9945 49.8749L9.32934 53.5487C7.77417 55.6493 7.99679 58.6493 9.84676 60.5243L14.2116 64.9481C16.0616 66.8231 19.0216 67.0487 21.0942 65.4725L24.719 62.7714L27.9016 64.1219L28.5664 68.6219C28.9364 71.2469 31.1564 73.1981 33.8216 73.1981H40.0364C42.6264 73.1981 44.9215 71.2469 45.2915 68.6219L45.9564 64.1219L49.1389 62.7714L52.7637 65.4725C54.8363 67.0487 57.7963 66.8231 59.6464 64.9481L64.0112 60.5243C65.8612 58.6493 66.0837 55.6493 64.5286 53.5487L61.8634 49.8749L63.196 46.6493L67.636 45.9755C70.226 45.6005 72.1512 43.3505 72.1512 40.6493V34.3506C72.1512 31.7256 70.226 29.3994 67.636 29.0244ZM69.3385 40.6494C69.3385 41.8506 68.4511 42.9756 67.1937 43.125L61.9385 43.875C61.4211 43.9511 61.0511 44.25 60.8285 44.7011L58.9785 49.5C58.756 49.9511 58.8311 50.4755 59.126 50.9238L62.3085 55.1982C63.0485 56.1738 62.9011 57.5976 62.0859 58.497L57.7211 62.9208C56.8337 63.8203 55.5011 63.8964 54.4663 63.1464L50.2488 59.9209C49.8788 59.622 49.3614 59.5459 48.844 59.7714L44.1815 61.7226C43.7363 61.9482 43.3663 62.3232 43.294 62.8476L42.554 68.1738C42.4066 69.375 41.2966 70.3476 40.1115 70.3476H33.8967C32.7115 70.3476 31.6015 69.4482 31.4541 68.1738L30.7141 62.8476C30.639 62.3232 30.3441 61.9482 29.8267 61.7226L25.1612 59.7744C25.0138 59.6982 24.7912 59.6982 24.6438 59.6982C24.349 59.6982 24.0512 59.7744 23.8286 59.997L19.6112 63.2226C18.6486 63.9726 17.2438 63.8964 16.3564 62.997L11.9915 58.5732C11.1041 57.6738 11.029 56.3232 11.769 55.2744L14.9515 50.9999C15.2464 50.6249 15.3215 50.1005 15.0989 49.5761L13.1738 44.8506C12.9512 44.3994 12.5812 44.0244 12.0638 44.0244L6.80859 43.2744C5.62342 43.125 4.66377 41.9999 4.66377 40.7988V34.5001C4.66377 33.2989 5.55121 32.1739 6.80859 32.0245L12.0638 31.2745C12.5812 31.1983 12.9512 30.8995 13.1738 30.3751L15.0989 25.6495C15.3215 25.1983 15.2464 24.6739 14.9515 24.2257L11.769 19.9513C11.029 18.9757 11.1764 17.5518 11.9915 16.6524L16.3564 12.2286C17.2438 11.3292 18.5764 11.2531 19.6112 12.003L23.8286 15.2286C24.1986 15.5274 24.7161 15.6036 25.2335 15.378L29.896 13.4268C30.3412 13.2012 30.7112 12.8262 30.7835 12.3018L31.5235 6.97564C31.6709 5.77445 32.7809 4.80183 33.966 4.80183H40.1808C41.366 4.80183 42.476 5.70126 42.6233 6.97564L43.3633 12.3018C43.4385 12.8262 43.7333 13.2013 44.2508 13.4268L48.9133 15.378C49.3585 15.6036 49.8759 15.5274 50.3182 15.2286L54.5356 12.003C55.4982 11.253 56.9031 11.3292 57.7905 12.2286L62.1553 16.6524C63.0427 17.5519 63.1178 18.9024 62.3779 19.9513L59.1953 24.2257C58.9005 24.6007 58.8253 25.1251 59.0479 25.6495L60.9731 30.3751C61.1956 30.8262 61.5656 31.2013 62.0831 31.2745L67.3382 32.0245C68.5234 32.1739 69.4831 33.2989 69.4831 34.5001L69.4859 40.6495L69.3385 40.6494Z" fill="black"></path><path d="M45.9553 40.2013C44.9927 39.2257 43.9578 38.5518 42.7727 37.9513C44.1775 36.4513 45.0679 34.5001 45.0679 32.2501C45.0679 27.7501 41.4431 24.0763 37.0031 24.0763C32.5634 24.0763 28.9383 27.7501 28.9383 32.2501C28.9383 34.4239 29.8258 36.4513 31.2335 37.9513C28.7187 39.3018 26.571 41.4024 25.3887 44.1768C25.0939 44.9268 25.3887 45.753 26.1287 46.0518C26.3513 46.128 26.4987 46.2012 26.7213 46.2012C27.2387 46.2012 27.7561 45.9024 27.9787 45.375C29.0887 42.75 31.3087 40.7989 33.8987 39.8995C34.8613 40.2745 35.8962 40.5733 37.0062 40.5733C38.1162 40.5733 39.151 40.3477 40.1136 39.9727C41.5936 40.4239 42.9262 41.2472 44.0362 42.3722C44.9236 43.2716 45.5913 44.3233 46.1087 45.4483C46.4036 46.1222 47.2187 46.4972 47.9587 46.1983C48.6235 45.8995 48.9935 45.0733 48.6987 44.3233C48.0252 42.6739 47.0655 41.3263 45.9555 40.2013L45.9553 40.2013ZM37 26.8506C39.8849 26.8506 42.2552 29.2501 42.2552 32.1768C42.2552 35.1006 39.8878 37.503 37 37.503C34.1152 37.503 31.6726 35.1036 31.6726 32.1768C31.6726 29.2501 34.1151 26.8506 37 26.8506Z" fill="black"></path><path d="M37 17.3994C26.0474 17.3994 17.1674 26.3994 17.1674 37.5C17.1674 48.6006 26.0474 57.6006 37 57.6006C47.9526 57.6006 56.8326 48.6006 56.8326 37.5C56.8326 26.3994 47.9526 17.3994 37 17.3994ZM37 54.75C27.6026 54.75 19.98 47.0244 19.98 37.5C19.98 27.9756 27.6026 20.25 37 20.25C46.3974 20.25 54.02 27.9756 54.02 37.5C54.02 47.0244 46.3974 54.75 37 54.75Z" fill="blac"></path></svg>