<svg xmlns="http://www.w3.org/2000/svg" viewBox="0 0 83 76" width="82" height="75"><title>Group-svg</title><style>		.s0 { fill: #000000 } 	</style><path id="Layer" fill-rule="evenodd" class="s0" d="m41.2 60.4c-0.3 0-0.7-0.2-1-0.5l-5.2-5.9h-9.4c-3.5 0-6.4-2.9-6.4-6.4v-18.4c0-3.5 2.9-6.4 6.4-6.4h31.3c3.5 0 6.3 2.8 6.3 6.4v18.4c0 3.5-2.8 6.4-6.3 6.4h-9.4l-5.2 5.9c-0.3 0.3-0.7 0.5-1.1 0.5zm-5.5-9.2c0.4 0 0.7 0.2 1 0.5l4.5 5.2 4.6-5.2c0.3-0.3 0.7-0.5 1.1-0.5h10c2 0 3.6-1.6 3.6-3.6v-18.5c0-1.9-1.6-3.6-3.6-3.6h-31.2c-2.1 0-3.7 1.7-3.7 3.6v18.5c0 2 1.6 3.6 3.7 3.6h10zm-1.4-12.8c0 2.3-1.9 4.2-4.2 4.2-2.3 0-4.2-1.9-4.2-4.2 0-2.4 1.9-4.2 4.2-4.2 2.3 0 4.2 1.8 4.2 4.2zm-2.7 0c0-0.8-0.7-1.5-1.5-1.5-0.8 0-1.5 0.7-1.5 1.5 0 0.8 0.7 1.4 1.5 1.4 0.8 0 1.5-0.6 1.5-1.4zm9.6 4.2c-2.3 0-4.2-1.9-4.2-4.2 0-2.4 1.9-4.2 4.2-4.2 2.4 0 4.3 1.8 4.3 4.2 0 2.3-1.9 4.2-4.3 4.2zm0-2.8c0.9 0 1.5-0.6 1.5-1.4 0-0.8-0.6-1.5-1.5-1.5-0.8 0-1.4 0.7-1.4 1.5 0 0.8 0.6 1.4 1.4 1.4zm7-1.4c0-2.4 1.9-4.2 4.2-4.2 2.3 0 4.2 1.8 4.2 4.2 0 2.3-1.9 4.2-4.2 4.2-2.3 0-4.2-1.9-4.2-4.2zm2.7 0c0 0.8 0.7 1.4 1.5 1.4 0.8 0 1.5-0.6 1.5-1.4 0-0.8-0.7-1.5-1.5-1.5-0.8 0-1.5 0.7-1.5 1.5zm20.8-11c6 0 10.8 4.8 10.8 10.7 0 6-4.8 10.8-10.8 10.8h-1.7v10.3c0 6.9-5.6 12.4-12.4 12.4h-10.8c-0.6 2.5-2.9 4.4-5.6 4.4-3.1 0-5.7-2.6-5.7-5.8 0-3.1 2.6-5.7 5.7-5.7 2.7 0 5 1.9 5.6 4.4h10.8c5.3 0 9.7-4.3 9.7-9.7v-30.4c0-14.4-11.7-26-26.1-26-14.3 0-26 11.6-26 26v18.7c0 0.8-0.6 1.4-1.3 1.4h-3.1c-6 0-10.8-4.8-10.8-10.8 0-5.9 4.8-10.7 10.8-10.7h1.8c0.7-15.2 13.3-27.4 28.6-27.4 15.4 0 28 12.2 28.7 27.4h1.8zm-59.2 2.7h-1.7c-4.5 0-8.1 3.6-8.1 8 0 4.5 3.6 8 8.1 8h1.7zm31.7 40.2c0-1.7-1.3-3-3-3-1.6 0-2.9 1.3-2.9 3 0 1.6 1.3 3 2.9 3 1.7 0 3-1.4 3-3zm27.5-24.1c4.5 0 8-3.6 8-8 0-4.5-3.6-8.1-8-8.1h-1.7v16.1h1.7z"></path></svg>