<svg xmlns="http://www.w3.org/2000/svg" viewBox="0 0 82 71" width="87" height="75"><title>Vector-svg (2)-svg</title><style>		.s0 { fill: #000000 } 	</style><path id="Layer" fill-rule="evenodd" class="s0" d="m80.8 71h-79.6c-0.7 0-1.2-0.5-1.2-1.2v-43.8c0-0.7 0.5-1.2 1.2-1.2h2.7l1.9-18.8c-0.5-0.1-1-0.5-1-1.1v-3.7c0-0.7 0.6-1.2 1.3-1.2h12.3c0.7 0 1.3 0.5 1.3 1.2v3.7c0 0.6-0.5 1-1 1.1l1.9 18.8h8.5l4.6-8.9q0.1-0.1 0.2-0.2c0.4-0.5 1.2-0.6 1.7-0.2l10.3 8.6 4.4-8.2q0-0.1 0.1-0.2c0.4-0.5 1.2-0.6 1.7-0.2l10.5 8.7 5.9-8.3q0 0 0.1-0.1c0.4-0.5 1.2-0.5 1.7-0.1l11.2 9.9c0.3 0.2 0.5 0.6 0.5 1v43.2c0 0.7-0.5 1.2-1.2 1.2zm-78.4-2.4h77.2v-26.3h-6.5c-0.7 0-1.2-0.5-1.2-1.2 0-0.7 0.5-1.2 1.2-1.2h6.5v-12.8l-9.9-8.7-5.9 8.3c-0.3 0.5-1.1 0.6-1.6 0.3q-0.1-0.1-0.2-0.2l-10.3-8.5-4.3 8.2c-0.3 0.6-1 0.8-1.6 0.5q-0.2 0-0.3-0.1l-10.3-8.6-4.3 8.2c-0.3 0.4-0.7 0.7-1.1 0.7h-27.4zm15.8-43.8l-1.1-10.8h-9.7l-1.1 10.8zm-1.5-14h-8.9l-0.1 0.8h9.1zm-0.5-4.7h-7.9l-0.3 2.3h8.5zm1-2.4v-1.2h-10v1.2zm9.8 57.2h-13.2c-0.5 0-1-0.4-1-1v-2.8c0-4.5 2.8-8.3 6.7-9.8-1.7-1.3-2.8-3.2-2.8-5.5 0-3.7 2.9-6.7 6.7-6.7 3.7 0 6.7 3 6.7 6.7 0 2.3-1.1 4.2-2.8 5.5 0.9 0.4 1.7 0.8 2.6 1.4 0.4 0.3 0.5 1 0.1 1.5-0.3 0.4-0.9 0.5-1.4 0.1-1.5-1.1-3.3-1.7-5.2-1.7-4.7 0-8.5 3.8-8.5 8.5v1.8h12.1c0.6 0 1 0.4 1 1 0 0.5-0.4 1-1 1zm-8.3-19.1c0 2.6 2.1 4.7 4.7 4.7 2.6 0 4.6-2.1 4.6-4.7 0-2.6-2.1-4.6-4.6-4.6-2.6 0-4.7 2-4.7 4.6zm47 7.8c2 2 3.2 4.7 3.1 7.5v2.8c0 0.5-0.4 1-1 1h-13.2c-0.5 0-1-0.4-1-1 0-0.5 0.4-1 1-1h12.2v-1.8c0-2.3-0.9-4.4-2.5-6.1-1.6-1.6-3.8-2.5-6.1-2.5-1.8 0-3.7 0.6-5.2 1.8-0.4 0.3-1.1 0.3-1.4-0.2-0.4-0.4-0.3-1.1 0.2-1.4 0.7-0.7 1.6-1.1 2.5-1.5-1.7-1.2-2.8-3.2-2.8-5.4 0-3.7 3-6.7 6.7-6.7 3.8 0 6.8 3 6.8 6.7 0 2.2-1.1 4.2-2.8 5.4q1.9 0.8 3.5 2.4zm-12.1-7.8c0 2.6 2.1 4.7 4.6 4.7 2.6 0 4.7-2.1 4.7-4.7 0-2.6-2.1-4.6-4.7-4.6-2.5 0-4.6 2-4.6 4.6zm-23.4 15.3c0-4.5 2.8-8.3 6.5-9.8-1.7-1.3-2.8-3.2-2.8-5.5 0-3.7 3-6.7 6.8-6.7 3.7 0 6.7 3 6.7 6.7 0 2.3-1.1 4.2-2.8 5.5 1.4 0.5 2.5 1.3 3.6 2.3 2 2 3.1 4.7 3.1 7.5v2.8c0 0.5-0.4 1-1 1h-2.4c-0.6 0-1.1-0.4-1.1-1 0-0.5 0.5-1 1.1-1h1.4v-1.8c0-2.3-0.9-4.4-2.5-6.1-1.5-1.5-3.7-2.4-6-2.4-4.7 0-8.5 3.8-8.5 8.5v1.8h1.5c0.5 0 1 0.4 1 1 0 0.5-0.5 1-1 1h-2.6c-0.5 0-1-0.4-1-1zm6-15.3c0 2.6 2 4.7 4.6 4.7 2.6 0 4.7-2.1 4.7-4.7 0-2.6-2.1-4.6-4.7-4.6-2.5 0-4.6 2-4.6 4.6z"></path></svg>